<?xml version="1.0" encoding="UTF-8"?>
<svg xmlns="http://www.w3.org/2000/svg" xmlns:xlink="http://www.w3.org/1999/xlink" width="32px" height="32px" viewBox="0 0 32 32" version="1.1">
<g id="surface1">
<path style=" stroke:none;fill-rule:nonzero;fill:rgb(55.686277%,64.705884%,12.54902%);fill-opacity:1;" d="M 14.371094 6.230469 L 14.371094 4.222656 C 14.371094 3.710938 15.105469 3.289062 16.007812 3.289062 C 16.902344 3.289062 17.640625 3.707031 17.640625 4.222656 L 17.640625 6.230469 "/>
<path style=" stroke:none;fill-rule:nonzero;fill:rgb(26.274511%,26.274511%,26.274511%);fill-opacity:1;" d="M 18.105469 6.230469 L 17.171875 6.230469 L 17.171875 4.222656 C 17.171875 4.085938 16.761719 3.757812 16.007812 3.757812 C 15.246094 3.757812 14.839844 4.085938 14.839844 4.222656 L 14.839844 6.230469 L 13.90625 6.230469 L 13.90625 4.222656 C 13.90625 3.804688 14.164062 3.414062 14.621094 3.15625 C 15 2.941406 15.492188 2.820312 16.007812 2.820312 C 16.523438 2.820312 17.011719 2.941406 17.390625 3.15625 C 17.84375 3.414062 18.105469 3.804688 18.105469 4.222656 Z M 18.105469 6.230469 "/>
<path style=" stroke:none;fill-rule:nonzero;fill:rgb(44.705883%,51.372552%,14.117648%);fill-opacity:1;" d="M 16.007812 3.289062 C 15.800781 3.289062 15.601562 3.3125 15.421875 3.351562 C 16.035156 3.488281 16.472656 3.828125 16.472656 4.226562 L 16.472656 6.234375 L 17.636719 6.234375 L 17.636719 4.226562 C 17.640625 3.710938 16.90625 3.289062 16.007812 3.289062 Z M 16.007812 3.289062 "/>
<path style=" stroke:none;fill-rule:nonzero;fill:rgb(69.01961%,74.901962%,40.784314%);fill-opacity:1;" d="M 16.007812 3.289062 C 16.210938 3.289062 16.410156 3.3125 16.589844 3.351562 C 15.976562 3.488281 15.539062 3.828125 15.539062 4.226562 L 15.539062 6.234375 L 14.375 6.234375 L 14.375 4.226562 C 14.371094 3.710938 15.109375 3.289062 16.007812 3.289062 Z M 16.007812 3.289062 "/>
<path style=" stroke:none;fill-rule:nonzero;fill:rgb(55.686277%,64.705884%,12.54902%);fill-opacity:1;" d="M 25.339844 15.425781 C 25.339844 25.460938 16.007812 28.726562 16.007812 28.726562 C 16.007812 28.726562 6.671875 25.457031 6.671875 15.425781 C 6.671875 10.273438 10.851562 6.089844 16.007812 6.089844 C 21.164062 6.089844 25.339844 10.269531 25.339844 15.425781 Z M 25.339844 15.425781 "/>
<path style=" stroke:none;fill-rule:nonzero;fill:rgb(26.274511%,26.274511%,26.274511%);fill-opacity:1;" d="M 16.007812 29.21875 L 15.851562 29.164062 C 15.753906 29.132812 13.40625 28.292969 11.03125 26.1875 C 9.632812 24.945312 8.519531 23.519531 7.714844 21.949219 C 6.714844 19.984375 6.207031 17.789062 6.207031 15.429688 C 6.207031 12.808594 7.226562 10.351562 9.078125 8.5 C 10.929688 6.648438 13.390625 5.628906 16.007812 5.628906 C 18.625 5.628906 21.085938 6.648438 22.933594 8.5 C 24.785156 10.351562 25.804688 12.8125 25.804688 15.429688 C 25.804688 17.789062 25.300781 19.984375 24.296875 21.949219 C 23.496094 23.523438 22.382812 24.945312 20.980469 26.1875 C 18.605469 28.292969 16.257812 29.132812 16.160156 29.164062 Z M 16.007812 6.554688 C 13.636719 6.554688 11.414062 7.476562 9.738281 9.152344 C 8.0625 10.828125 7.140625 13.054688 7.140625 15.421875 C 7.140625 17.636719 7.617188 19.6875 8.546875 21.523438 C 9.292969 22.988281 10.335938 24.320312 11.648438 25.488281 C 13.550781 27.175781 15.460938 28.007812 16.007812 28.226562 C 16.554688 28.007812 18.484375 27.164062 20.390625 25.464844 C 21.695312 24.304688 22.734375 22.96875 23.476562 21.507812 C 24.40625 19.679688 24.875 17.632812 24.875 15.425781 C 24.875 13.054688 23.953125 10.832031 22.277344 9.15625 C 20.601562 7.476562 18.375 6.554688 16.007812 6.554688 Z M 16.007812 6.554688 "/>
<path style=" stroke:none;fill-rule:nonzero;fill:rgb(44.705883%,51.372552%,14.117648%);fill-opacity:1;" d="M 16.492188 6.101562 C 20.289062 7.480469 23.007812 11.179688 23.007812 15.523438 C 23.007812 22.816406 18.5 26.773438 15.597656 28.5625 C 15.855469 28.671875 16.007812 28.726562 16.007812 28.726562 C 16.007812 28.726562 25.339844 25.460938 25.339844 15.425781 C 25.339844 10.429688 21.421875 6.355469 16.492188 6.101562 Z M 16.492188 6.101562 "/>
<path style=" stroke:none;fill-rule:nonzero;fill:rgb(69.01961%,74.901962%,40.784314%);fill-opacity:1;" d="M 15.519531 6.101562 C 11.726562 7.480469 9.007812 11.179688 9.007812 15.523438 C 9.007812 22.816406 13.511719 26.773438 16.414062 28.5625 C 16.15625 28.671875 16.007812 28.726562 16.007812 28.726562 C 16.007812 28.726562 6.671875 25.457031 6.671875 15.425781 C 6.671875 10.429688 10.589844 6.355469 15.519531 6.101562 Z M 15.519531 6.101562 "/>
<path style=" stroke:none;fill-rule:nonzero;fill:rgb(26.274511%,26.274511%,26.274511%);fill-opacity:1;" d="M 16.007812 29.191406 C 15.953125 29.191406 15.902344 29.179688 15.851562 29.164062 C 15.753906 29.132812 13.40625 28.292969 11.03125 26.1875 C 9.632812 24.945312 8.519531 23.519531 7.714844 21.949219 C 6.714844 19.984375 6.207031 17.789062 6.207031 15.429688 C 6.207031 12.808594 7.226562 10.351562 9.078125 8.5 C 10.929688 6.648438 13.390625 5.628906 16.007812 5.628906 C 18.625 5.628906 21.085938 6.648438 22.933594 8.5 C 24.785156 10.351562 25.804688 12.8125 25.804688 15.429688 C 25.804688 17.789062 25.300781 19.984375 24.296875 21.949219 C 23.496094 23.523438 22.382812 24.945312 20.980469 26.1875 C 18.605469 28.292969 16.257812 29.132812 16.160156 29.164062 C 16.109375 29.179688 16.058594 29.191406 16.007812 29.191406 Z M 16.007812 6.554688 C 13.636719 6.554688 11.414062 7.476562 9.738281 9.152344 C 8.0625 10.828125 7.140625 13.054688 7.140625 15.421875 C 7.140625 17.636719 7.617188 19.6875 8.546875 21.523438 C 9.292969 22.988281 10.335938 24.320312 11.648438 25.488281 C 13.550781 27.175781 15.460938 28.007812 16.007812 28.226562 C 16.554688 28.007812 18.484375 27.164062 20.390625 25.464844 C 21.695312 24.304688 22.734375 22.96875 23.476562 21.507812 C 24.40625 19.679688 24.875 17.632812 24.875 15.425781 C 24.875 13.054688 23.953125 10.832031 22.277344 9.15625 C 20.601562 7.476562 18.375 6.554688 16.007812 6.554688 Z M 16.007812 6.554688 "/>
<path style=" stroke:none;fill-rule:nonzero;fill:rgb(26.274511%,26.274511%,26.274511%);fill-opacity:1;" d="M 12.121094 26.953125 C 11.949219 26.953125 11.785156 26.855469 11.703125 26.691406 C 11.589844 26.460938 11.683594 26.179688 11.914062 26.066406 C 13.546875 25.269531 14.847656 23.914062 15.578125 22.253906 C 15.679688 22.019531 15.957031 21.910156 16.195312 22.015625 C 16.429688 22.117188 16.539062 22.394531 16.429688 22.632812 C 15.613281 24.492188 14.15625 26.007812 12.328125 26.90625 C 12.261719 26.9375 12.191406 26.953125 12.121094 26.953125 Z M 12.121094 26.953125 "/>
<path style=" stroke:none;fill-rule:nonzero;fill:rgb(26.274511%,26.274511%,26.274511%);fill-opacity:1;" d="M 19.894531 26.953125 C 19.824219 26.953125 19.757812 26.9375 19.691406 26.90625 C 18.953125 26.542969 18.265625 26.078125 17.652344 25.519531 C 16.757812 24.703125 16.0625 23.730469 15.582031 22.632812 C 15.476562 22.398438 15.585938 22.121094 15.820312 22.019531 C 16.054688 21.914062 16.335938 22.023438 16.4375 22.257812 C 16.867188 23.238281 17.492188 24.101562 18.289062 24.832031 C 18.835938 25.332031 19.445312 25.746094 20.101562 26.070312 C 20.335938 26.179688 20.429688 26.460938 20.320312 26.695312 C 20.230469 26.855469 20.066406 26.953125 19.894531 26.953125 Z M 8.523438 22.910156 C 8.269531 22.910156 8.0625 22.710938 8.054688 22.457031 C 8.050781 22.199219 8.253906 21.984375 8.507812 21.976562 C 10.085938 21.9375 11.589844 21.425781 12.859375 20.496094 C 14.105469 19.585938 15.039062 18.339844 15.566406 16.898438 C 15.652344 16.652344 15.921875 16.53125 16.164062 16.617188 C 16.40625 16.707031 16.527344 16.976562 16.441406 17.214844 C 15.851562 18.835938 14.804688 20.226562 13.40625 21.25 C 11.980469 22.289062 10.292969 22.867188 8.527344 22.914062 C 8.527344 22.910156 8.523438 22.910156 8.523438 22.910156 Z M 8.523438 22.910156 "/>
<path style=" stroke:none;fill-rule:nonzero;fill:rgb(26.274511%,26.274511%,26.274511%);fill-opacity:1;" d="M 23.496094 22.898438 L 23.484375 22.898438 C 21.007812 22.835938 18.667969 21.710938 17.074219 19.816406 C 16.421875 19.039062 15.914062 18.164062 15.570312 17.214844 C 15.480469 16.976562 15.605469 16.707031 15.847656 16.617188 C 16.085938 16.53125 16.355469 16.65625 16.445312 16.898438 C 16.753906 17.742188 17.203125 18.523438 17.789062 19.214844 C 19.210938 20.910156 21.292969 21.914062 23.507812 21.96875 C 23.761719 21.976562 23.96875 22.191406 23.960938 22.445312 C 23.960938 22.699219 23.75 22.898438 23.496094 22.898438 Z M 6.789062 17.523438 L 6.757812 17.523438 C 6.503906 17.523438 6.292969 17.316406 6.292969 17.054688 C 6.292969 16.800781 6.503906 16.589844 6.757812 16.589844 L 6.789062 16.589844 C 9.554688 16.589844 12.164062 15.511719 14.121094 13.554688 C 16.082031 11.601562 17.164062 9 17.171875 6.230469 C 17.171875 5.976562 17.382812 5.765625 17.636719 5.765625 C 17.894531 5.765625 18.101562 5.976562 18.101562 6.234375 C 18.101562 7.757812 17.796875 9.238281 17.207031 10.632812 C 16.632812 11.976562 15.820312 13.183594 14.78125 14.21875 C 13.742188 15.257812 12.535156 16.070312 11.1875 16.636719 C 9.796875 17.226562 8.316406 17.523438 6.789062 17.523438 Z M 6.789062 17.523438 "/>
<path style=" stroke:none;fill-rule:nonzero;fill:rgb(26.274511%,26.274511%,26.274511%);fill-opacity:1;" d="M 25.222656 17.523438 L 25.191406 17.523438 C 23.242188 17.519531 21.316406 17.007812 19.632812 16.050781 C 17.996094 15.117188 16.605469 13.78125 15.609375 12.183594 C 15.472656 11.964844 15.539062 11.679688 15.757812 11.539062 C 15.976562 11.402344 16.265625 11.472656 16.402344 11.691406 C 17.316406 13.15625 18.59375 14.382812 20.09375 15.242188 C 21.640625 16.121094 23.402344 16.589844 25.195312 16.59375 L 25.25 16.59375 C 25.507812 16.59375 25.714844 16.804688 25.714844 17.058594 C 25.714844 17.316406 25.507812 17.527344 25.25 17.527344 Z M 16.007812 22.910156 C 15.953125 22.910156 15.902344 22.898438 15.851562 22.882812 C 15.796875 22.867188 14.484375 22.398438 12.832031 21.292969 C 12.617188 21.148438 12.558594 20.859375 12.703125 20.648438 C 12.847656 20.429688 13.136719 20.375 13.351562 20.519531 C 14.585938 21.347656 15.628906 21.796875 16.007812 21.945312 C 16.390625 21.792969 17.4375 21.34375 18.671875 20.515625 C 18.886719 20.371094 19.175781 20.429688 19.320312 20.644531 C 19.460938 20.859375 19.402344 21.148438 19.191406 21.289062 C 17.535156 22.398438 16.21875 22.867188 16.164062 22.882812 C 16.109375 22.902344 16.058594 22.910156 16.007812 22.910156 Z M 16.007812 22.910156 "/>
<path style=" stroke:none;fill-rule:nonzero;fill:rgb(26.274511%,26.274511%,26.274511%);fill-opacity:1;" d="M 16.007812 17.523438 C 15.953125 17.523438 15.902344 17.515625 15.851562 17.5 C 15.789062 17.476562 14.289062 16.945312 12.472656 15.664062 C 12.261719 15.511719 12.210938 15.222656 12.359375 15.011719 C 12.507812 14.804688 12.800781 14.753906 13.007812 14.898438 C 14.246094 15.773438 15.429688 16.335938 16.007812 16.558594 C 16.582031 16.335938 17.761719 15.773438 19 14.898438 C 19.210938 14.75 19.503906 14.800781 19.648438 15.011719 C 19.800781 15.222656 19.75 15.515625 19.539062 15.664062 C 17.722656 16.945312 16.222656 17.476562 16.160156 17.5 C 16.109375 17.515625 16.058594 17.523438 16.007812 17.523438 Z M 17.640625 6.699219 C 17.382812 6.699219 17.175781 6.492188 17.175781 6.234375 L 17.175781 4.226562 C 17.175781 4.089844 16.765625 3.757812 16.007812 3.757812 C 15.25 3.757812 14.84375 4.089844 14.84375 4.226562 L 14.84375 6.234375 C 14.84375 6.492188 14.632812 6.699219 14.378906 6.699219 C 14.121094 6.699219 13.914062 6.492188 13.914062 6.234375 L 13.914062 4.226562 C 13.914062 3.808594 14.171875 3.417969 14.628906 3.160156 C 15.007812 2.945312 15.5 2.824219 16.011719 2.824219 C 16.527344 2.824219 17.019531 2.945312 17.398438 3.160156 C 17.851562 3.417969 18.113281 3.804688 18.113281 4.226562 L 18.113281 6.234375 C 18.105469 6.492188 17.898438 6.699219 17.640625 6.699219 Z M 17.640625 6.699219 "/>
</g>
</svg>
