<?xml version="1.0" encoding="UTF-8"?>
<svg xmlns="http://www.w3.org/2000/svg" xmlns:xlink="http://www.w3.org/1999/xlink" width="16px" height="16px" viewBox="0 0 16 16" version="1.1">
<g id="surface1">
<path style=" stroke:none;fill-rule:nonzero;fill:rgb(55.686277%,64.705884%,12.54902%);fill-opacity:1;" d="M 7.1875 3.117188 L 7.1875 2.109375 C 7.1875 1.855469 7.554688 1.644531 8.003906 1.644531 C 8.453125 1.644531 8.820312 1.851562 8.820312 2.109375 L 8.820312 3.117188 "/>
<path style=" stroke:none;fill-rule:nonzero;fill:rgb(26.274511%,26.274511%,26.274511%);fill-opacity:1;" d="M 9.054688 3.117188 L 8.585938 3.117188 L 8.585938 2.109375 C 8.585938 2.042969 8.382812 1.878906 8.003906 1.878906 C 7.625 1.878906 7.421875 2.042969 7.421875 2.109375 L 7.421875 3.117188 L 6.953125 3.117188 L 6.953125 2.109375 C 6.953125 1.902344 7.082031 1.707031 7.3125 1.578125 C 7.5 1.46875 7.746094 1.410156 8.003906 1.410156 C 8.261719 1.410156 8.507812 1.46875 8.695312 1.578125 C 8.921875 1.707031 9.054688 1.902344 9.054688 2.109375 Z M 9.054688 3.117188 "/>
<path style=" stroke:none;fill-rule:nonzero;fill:rgb(44.705883%,51.372552%,14.117648%);fill-opacity:1;" d="M 8.003906 1.644531 C 7.898438 1.644531 7.800781 1.65625 7.710938 1.675781 C 8.015625 1.742188 8.234375 1.914062 8.234375 2.113281 L 8.234375 3.117188 L 8.820312 3.117188 L 8.820312 2.113281 C 8.820312 1.855469 8.453125 1.644531 8.003906 1.644531 Z M 8.003906 1.644531 "/>
<path style=" stroke:none;fill-rule:nonzero;fill:rgb(69.01961%,74.901962%,40.784314%);fill-opacity:1;" d="M 8.003906 1.644531 C 8.105469 1.644531 8.203125 1.65625 8.296875 1.675781 C 7.988281 1.742188 7.769531 1.914062 7.769531 2.113281 L 7.769531 3.117188 L 7.1875 3.117188 L 7.1875 2.113281 C 7.1875 1.855469 7.554688 1.644531 8.003906 1.644531 Z M 8.003906 1.644531 "/>
<path style=" stroke:none;fill-rule:nonzero;fill:rgb(55.686277%,64.705884%,12.54902%);fill-opacity:1;" d="M 12.671875 7.710938 C 12.671875 12.730469 8.003906 14.363281 8.003906 14.363281 C 8.003906 14.363281 3.335938 12.726562 3.335938 7.710938 C 3.335938 5.136719 5.425781 3.046875 8.003906 3.046875 C 10.582031 3.046875 12.671875 5.132812 12.671875 7.710938 Z M 12.671875 7.710938 "/>
<path style=" stroke:none;fill-rule:nonzero;fill:rgb(26.274511%,26.274511%,26.274511%);fill-opacity:1;" d="M 8.003906 14.609375 L 7.925781 14.582031 C 7.875 14.566406 6.703125 14.148438 5.515625 13.09375 C 4.816406 12.472656 4.257812 11.757812 3.859375 10.976562 C 3.359375 9.992188 3.101562 8.894531 3.101562 7.714844 C 3.101562 6.40625 3.613281 5.175781 4.539062 4.25 C 5.464844 3.324219 6.695312 2.8125 8.003906 2.8125 C 9.3125 2.8125 10.542969 3.324219 11.46875 4.25 C 12.390625 5.175781 12.902344 6.40625 12.902344 7.714844 C 12.902344 8.894531 12.648438 9.992188 12.148438 10.976562 C 11.75 11.761719 11.191406 12.472656 10.492188 13.09375 C 9.304688 14.148438 8.128906 14.566406 8.078125 14.582031 Z M 8.003906 3.277344 C 6.820312 3.277344 5.707031 3.738281 4.867188 4.578125 C 4.03125 5.414062 3.570312 6.527344 3.570312 7.710938 C 3.570312 8.820312 3.808594 9.84375 4.273438 10.761719 C 4.648438 11.492188 5.167969 12.160156 5.824219 12.742188 C 6.773438 13.585938 7.730469 14.003906 8.003906 14.113281 C 8.277344 14.003906 9.242188 13.582031 10.195312 12.734375 C 10.847656 12.152344 11.367188 11.484375 11.738281 10.753906 C 12.203125 9.839844 12.4375 8.816406 12.4375 7.710938 C 12.4375 6.527344 11.976562 5.414062 11.140625 4.578125 C 10.300781 3.738281 9.1875 3.277344 8.003906 3.277344 Z M 8.003906 3.277344 "/>
<path style=" stroke:none;fill-rule:nonzero;fill:rgb(44.705883%,51.372552%,14.117648%);fill-opacity:1;" d="M 8.246094 3.050781 C 10.144531 3.742188 11.503906 5.589844 11.503906 7.761719 C 11.503906 11.40625 9.25 13.386719 7.796875 14.28125 C 7.929688 14.335938 8.003906 14.363281 8.003906 14.363281 C 8.003906 14.363281 12.671875 12.730469 12.671875 7.710938 C 12.671875 5.214844 10.710938 3.179688 8.246094 3.050781 Z M 8.246094 3.050781 "/>
<path style=" stroke:none;fill-rule:nonzero;fill:rgb(69.01961%,74.901962%,40.784314%);fill-opacity:1;" d="M 7.757812 3.050781 C 5.863281 3.742188 4.503906 5.589844 4.503906 7.761719 C 4.503906 11.40625 6.757812 13.386719 8.207031 14.28125 C 8.078125 14.335938 8.003906 14.363281 8.003906 14.363281 C 8.003906 14.363281 3.335938 12.726562 3.335938 7.710938 C 3.335938 5.214844 5.296875 3.179688 7.757812 3.050781 Z M 7.757812 3.050781 "/>
<path style=" stroke:none;fill-rule:nonzero;fill:rgb(26.274511%,26.274511%,26.274511%);fill-opacity:1;" d="M 8.003906 14.59375 C 7.976562 14.59375 7.953125 14.589844 7.925781 14.582031 C 7.875 14.566406 6.703125 14.148438 5.515625 13.09375 C 4.816406 12.472656 4.257812 11.757812 3.859375 10.976562 C 3.359375 9.992188 3.101562 8.894531 3.101562 7.714844 C 3.101562 6.40625 3.613281 5.175781 4.539062 4.25 C 5.464844 3.324219 6.695312 2.8125 8.003906 2.8125 C 9.3125 2.8125 10.542969 3.324219 11.46875 4.25 C 12.390625 5.175781 12.902344 6.40625 12.902344 7.714844 C 12.902344 8.894531 12.648438 9.992188 12.148438 10.976562 C 11.75 11.761719 11.191406 12.472656 10.492188 13.09375 C 9.304688 14.148438 8.128906 14.566406 8.078125 14.582031 C 8.054688 14.589844 8.03125 14.59375 8.003906 14.59375 Z M 8.003906 3.277344 C 6.820312 3.277344 5.707031 3.738281 4.867188 4.578125 C 4.03125 5.414062 3.570312 6.527344 3.570312 7.710938 C 3.570312 8.820312 3.808594 9.84375 4.273438 10.761719 C 4.648438 11.492188 5.167969 12.160156 5.824219 12.742188 C 6.773438 13.585938 7.730469 14.003906 8.003906 14.113281 C 8.277344 14.003906 9.242188 13.582031 10.195312 12.734375 C 10.847656 12.152344 11.367188 11.484375 11.738281 10.753906 C 12.203125 9.839844 12.4375 8.816406 12.4375 7.710938 C 12.4375 6.527344 11.976562 5.414062 11.140625 4.578125 C 10.300781 3.738281 9.1875 3.277344 8.003906 3.277344 Z M 8.003906 3.277344 "/>
<path style=" stroke:none;fill-rule:nonzero;fill:rgb(26.274511%,26.274511%,26.274511%);fill-opacity:1;" d="M 6.0625 13.476562 C 5.976562 13.476562 5.890625 13.429688 5.851562 13.34375 C 5.796875 13.230469 5.84375 13.089844 5.957031 13.03125 C 6.773438 12.632812 7.421875 11.957031 7.789062 11.125 C 7.839844 11.007812 7.976562 10.953125 8.097656 11.007812 C 8.214844 11.058594 8.269531 11.195312 8.214844 11.316406 C 7.804688 12.246094 7.078125 13.003906 6.164062 13.453125 C 6.132812 13.46875 6.09375 13.476562 6.0625 13.476562 Z M 6.0625 13.476562 "/>
<path style=" stroke:none;fill-rule:nonzero;fill:rgb(26.274511%,26.274511%,26.274511%);fill-opacity:1;" d="M 9.945312 13.476562 C 9.914062 13.476562 9.878906 13.46875 9.84375 13.453125 C 9.476562 13.273438 9.132812 13.039062 8.828125 12.757812 C 8.378906 12.351562 8.03125 11.867188 7.789062 11.316406 C 7.738281 11.199219 7.792969 11.0625 7.910156 11.007812 C 8.027344 10.957031 8.167969 11.011719 8.21875 11.128906 C 8.433594 11.617188 8.746094 12.050781 9.144531 12.414062 C 9.417969 12.664062 9.722656 12.875 10.050781 13.035156 C 10.167969 13.089844 10.214844 13.230469 10.160156 13.347656 C 10.117188 13.429688 10.03125 13.476562 9.945312 13.476562 Z M 4.261719 11.453125 C 4.132812 11.453125 4.03125 11.355469 4.027344 11.226562 C 4.023438 11.101562 4.125 10.992188 4.253906 10.988281 C 5.042969 10.96875 5.796875 10.710938 6.429688 10.25 C 7.054688 9.792969 7.519531 9.171875 7.78125 8.449219 C 7.828125 8.328125 7.960938 8.265625 8.082031 8.308594 C 8.203125 8.351562 8.265625 8.488281 8.21875 8.609375 C 7.925781 9.417969 7.402344 10.113281 6.703125 10.625 C 5.992188 11.144531 5.148438 11.433594 4.265625 11.457031 C 4.265625 11.453125 4.261719 11.453125 4.261719 11.453125 Z M 4.261719 11.453125 "/>
<path style=" stroke:none;fill-rule:nonzero;fill:rgb(26.274511%,26.274511%,26.274511%);fill-opacity:1;" d="M 11.75 11.449219 L 11.742188 11.449219 C 10.503906 11.417969 9.335938 10.855469 8.539062 9.90625 C 8.210938 9.519531 7.957031 9.082031 7.785156 8.609375 C 7.742188 8.488281 7.804688 8.351562 7.921875 8.308594 C 8.042969 8.265625 8.179688 8.328125 8.222656 8.449219 C 8.375 8.871094 8.601562 9.261719 8.894531 9.609375 C 9.605469 10.453125 10.648438 10.957031 11.753906 10.984375 C 11.882812 10.988281 11.984375 11.09375 11.980469 11.222656 C 11.980469 11.351562 11.875 11.449219 11.75 11.449219 Z M 3.394531 8.761719 L 3.378906 8.761719 C 3.25 8.761719 3.148438 8.65625 3.148438 8.527344 C 3.148438 8.398438 3.25 8.296875 3.378906 8.296875 L 3.394531 8.296875 C 4.777344 8.296875 6.082031 7.757812 7.0625 6.777344 C 8.039062 5.800781 8.582031 4.5 8.585938 3.117188 C 8.585938 2.988281 8.691406 2.882812 8.820312 2.882812 C 8.945312 2.882812 9.050781 2.988281 9.050781 3.117188 C 9.050781 3.878906 8.898438 4.617188 8.601562 5.316406 C 8.316406 5.988281 7.910156 6.59375 7.390625 7.109375 C 6.871094 7.628906 6.265625 8.035156 5.59375 8.320312 C 4.898438 8.613281 4.15625 8.761719 3.394531 8.761719 Z M 3.394531 8.761719 "/>
<path style=" stroke:none;fill-rule:nonzero;fill:rgb(26.274511%,26.274511%,26.274511%);fill-opacity:1;" d="M 12.609375 8.761719 L 12.59375 8.761719 C 11.621094 8.757812 10.65625 8.503906 9.816406 8.023438 C 9 7.558594 8.304688 6.890625 7.804688 6.09375 C 7.734375 5.984375 7.769531 5.839844 7.878906 5.769531 C 7.988281 5.703125 8.132812 5.734375 8.203125 5.84375 C 8.65625 6.578125 9.296875 7.191406 10.046875 7.621094 C 10.820312 8.0625 11.703125 8.296875 12.597656 8.296875 L 12.625 8.296875 C 12.753906 8.296875 12.859375 8.402344 12.859375 8.53125 C 12.859375 8.65625 12.753906 8.765625 12.625 8.765625 Z M 8.003906 11.453125 C 7.976562 11.453125 7.953125 11.449219 7.925781 11.441406 C 7.898438 11.433594 7.242188 11.199219 6.414062 10.648438 C 6.308594 10.574219 6.28125 10.429688 6.351562 10.324219 C 6.421875 10.214844 6.570312 10.1875 6.675781 10.257812 C 7.292969 10.671875 7.8125 10.898438 8.003906 10.972656 C 8.195312 10.898438 8.71875 10.671875 9.335938 10.257812 C 9.445312 10.1875 9.585938 10.214844 9.660156 10.320312 C 9.730469 10.429688 9.703125 10.574219 9.59375 10.644531 C 8.765625 11.199219 8.109375 11.433594 8.082031 11.441406 C 8.054688 11.453125 8.03125 11.453125 8.003906 11.453125 Z M 8.003906 11.453125 "/>
<path style=" stroke:none;fill-rule:nonzero;fill:rgb(26.274511%,26.274511%,26.274511%);fill-opacity:1;" d="M 8.003906 8.761719 C 7.976562 8.761719 7.953125 8.757812 7.925781 8.75 C 7.894531 8.738281 7.144531 8.472656 6.234375 7.832031 C 6.132812 7.757812 6.105469 7.609375 6.179688 7.507812 C 6.253906 7.402344 6.398438 7.375 6.503906 7.449219 C 7.125 7.886719 7.714844 8.167969 8.003906 8.28125 C 8.289062 8.167969 8.882812 7.886719 9.5 7.449219 C 9.605469 7.375 9.75 7.398438 9.824219 7.507812 C 9.898438 7.609375 9.875 7.757812 9.769531 7.832031 C 8.859375 8.472656 8.109375 8.738281 8.078125 8.75 C 8.054688 8.757812 8.03125 8.761719 8.003906 8.761719 Z M 8.820312 3.351562 C 8.691406 3.351562 8.585938 3.246094 8.585938 3.117188 L 8.585938 2.113281 C 8.585938 2.046875 8.382812 1.878906 8.003906 1.878906 C 7.625 1.878906 7.421875 2.046875 7.421875 2.113281 L 7.421875 3.117188 C 7.421875 3.246094 7.316406 3.351562 7.1875 3.351562 C 7.0625 3.351562 6.957031 3.246094 6.957031 3.117188 L 6.957031 2.113281 C 6.957031 1.90625 7.085938 1.710938 7.3125 1.578125 C 7.503906 1.472656 7.75 1.414062 8.007812 1.414062 C 8.265625 1.414062 8.507812 1.472656 8.699219 1.578125 C 8.925781 1.710938 9.054688 1.902344 9.054688 2.113281 L 9.054688 3.117188 C 9.054688 3.246094 8.949219 3.351562 8.820312 3.351562 Z M 8.820312 3.351562 "/>
</g>
</svg>
